<mxfile host="app.diagrams.net" modified="2023-05-09T08:44:25.095Z" agent="Mozilla/5.0 (Windows NT 10.0; Win64; x64) AppleWebKit/537.36 (KHTML, like Gecko) Chrome/112.0.0.0 Safari/537.36" etag="eKXAocGEeya_szS_Cyjn" version="21.2.1" type="device">
  <diagram name="第 1 页" id="uaehS4REUFnTmjwTQcWF">
    <mxGraphModel dx="3006" dy="1489" grid="0" gridSize="10" guides="1" tooltips="1" connect="1" arrows="1" fold="1" page="0" pageScale="1" pageWidth="827" pageHeight="1169" math="0" shadow="0">
      <root>
        <mxCell id="0" />
        <mxCell id="1" parent="0" />
        <mxCell id="XAxzHW4d63KUv2WBRbAG-8" value="" style="group" vertex="1" connectable="0" parent="1">
          <mxGeometry x="232" y="768" width="346" height="64" as="geometry" />
        </mxCell>
        <mxCell id="XAxzHW4d63KUv2WBRbAG-4" value="空闲连接池&amp;nbsp;idleConnections" style="rounded=1;whiteSpace=wrap;html=1;fillColor=#f8cecc;strokeColor=none;" vertex="1" parent="XAxzHW4d63KUv2WBRbAG-8">
          <mxGeometry width="235" height="64" as="geometry" />
        </mxCell>
        <mxCell id="XAxzHW4d63KUv2WBRbAG-7" value="&lt;font style=&quot;font-size: 11px;&quot;&gt;&lt;i&gt;无锁ArrayList&lt;/i&gt;&lt;/font&gt;" style="text;html=1;strokeColor=none;fillColor=none;align=center;verticalAlign=middle;whiteSpace=wrap;rounded=0;" vertex="1" parent="XAxzHW4d63KUv2WBRbAG-8">
          <mxGeometry x="235" y="21.5" width="111" height="21" as="geometry" />
        </mxCell>
        <mxCell id="XAxzHW4d63KUv2WBRbAG-9" value="" style="group" vertex="1" connectable="0" parent="1">
          <mxGeometry x="200" y="191" width="346" height="64" as="geometry" />
        </mxCell>
        <mxCell id="XAxzHW4d63KUv2WBRbAG-3" value="活跃连接池&amp;nbsp;activeConnections" style="rounded=1;whiteSpace=wrap;html=1;fillColor=#ffe6cc;strokeColor=none;" vertex="1" parent="XAxzHW4d63KUv2WBRbAG-9">
          <mxGeometry width="235" height="64" as="geometry" />
        </mxCell>
        <mxCell id="XAxzHW4d63KUv2WBRbAG-6" value="&lt;font style=&quot;font-size: 11px;&quot;&gt;&lt;i&gt;无锁ArrayList&lt;/i&gt;&lt;/font&gt;" style="text;html=1;strokeColor=none;fillColor=none;align=center;verticalAlign=middle;whiteSpace=wrap;rounded=0;" vertex="1" parent="XAxzHW4d63KUv2WBRbAG-9">
          <mxGeometry x="235" y="21.5" width="111" height="21" as="geometry" />
        </mxCell>
        <mxCell id="XAxzHW4d63KUv2WBRbAG-15" value="&lt;font color=&quot;#009900&quot; face=&quot;Comic Sans MS&quot;&gt;! state.idleConnections.isEmpty()&lt;/font&gt;" style="text;html=1;strokeColor=none;fillColor=none;align=center;verticalAlign=middle;whiteSpace=wrap;rounded=0;" vertex="1" parent="1">
          <mxGeometry x="70" y="704" width="206.5" height="52" as="geometry" />
        </mxCell>
        <mxCell id="XAxzHW4d63KUv2WBRbAG-18" value="" style="endArrow=classic;html=1;rounded=0;strokeWidth=2;strokeColor=#009900;" edge="1" parent="1">
          <mxGeometry width="50" height="50" relative="1" as="geometry">
            <mxPoint x="8" y="813" as="sourcePoint" />
            <mxPoint x="223" y="813" as="targetPoint" />
          </mxGeometry>
        </mxCell>
        <mxCell id="XAxzHW4d63KUv2WBRbAG-69" value="1" style="edgeLabel;html=1;align=center;verticalAlign=middle;resizable=0;points=[];" vertex="1" connectable="0" parent="XAxzHW4d63KUv2WBRbAG-18">
          <mxGeometry x="-0.1359" y="1" relative="1" as="geometry">
            <mxPoint as="offset" />
          </mxGeometry>
        </mxCell>
        <mxCell id="XAxzHW4d63KUv2WBRbAG-29" style="edgeStyle=orthogonalEdgeStyle;rounded=0;orthogonalLoop=1;jettySize=auto;html=1;entryX=0.5;entryY=0;entryDx=0;entryDy=0;curved=1;exitX=0.5;exitY=0;exitDx=0;exitDy=0;strokeColor=#009900;strokeWidth=2;" edge="1" parent="1" source="XAxzHW4d63KUv2WBRbAG-21" target="XAxzHW4d63KUv2WBRbAG-3">
          <mxGeometry relative="1" as="geometry">
            <mxPoint x="679" y="108" as="sourcePoint" />
          </mxGeometry>
        </mxCell>
        <mxCell id="XAxzHW4d63KUv2WBRbAG-87" value="8" style="edgeLabel;html=1;align=center;verticalAlign=middle;resizable=0;points=[];" vertex="1" connectable="0" parent="XAxzHW4d63KUv2WBRbAG-29">
          <mxGeometry x="-0.3119" y="2" relative="1" as="geometry">
            <mxPoint as="offset" />
          </mxGeometry>
        </mxCell>
        <mxCell id="XAxzHW4d63KUv2WBRbAG-21" value="&lt;font size=&quot;1&quot; face=&quot;Comic Sans MS&quot;&gt;&lt;b style=&quot;font-size: 13px;&quot;&gt;new PooledConnection()&lt;/b&gt;&lt;/font&gt;" style="ellipse;whiteSpace=wrap;html=1;fillColor=#fff2cc;strokeColor=#d6b656;" vertex="1" parent="1">
          <mxGeometry x="1065" y="-84" width="163" height="57" as="geometry" />
        </mxCell>
        <mxCell id="XAxzHW4d63KUv2WBRbAG-30" style="edgeStyle=orthogonalEdgeStyle;rounded=0;orthogonalLoop=1;jettySize=auto;html=1;entryX=0.5;entryY=1;entryDx=0;entryDy=0;curved=1;strokeColor=#009900;strokeWidth=2;" edge="1" parent="1" source="XAxzHW4d63KUv2WBRbAG-26" target="XAxzHW4d63KUv2WBRbAG-21">
          <mxGeometry relative="1" as="geometry">
            <Array as="points">
              <mxPoint x="1207" y="161" />
              <mxPoint x="1147" y="161" />
            </Array>
          </mxGeometry>
        </mxCell>
        <mxCell id="XAxzHW4d63KUv2WBRbAG-73" value="4" style="edgeLabel;html=1;align=center;verticalAlign=middle;resizable=0;points=[];" vertex="1" connectable="0" parent="XAxzHW4d63KUv2WBRbAG-30">
          <mxGeometry x="-0.1814" y="11" relative="1" as="geometry">
            <mxPoint as="offset" />
          </mxGeometry>
        </mxCell>
        <mxCell id="XAxzHW4d63KUv2WBRbAG-80" style="edgeStyle=orthogonalEdgeStyle;rounded=0;orthogonalLoop=1;jettySize=auto;html=1;entryX=0.5;entryY=1;entryDx=0;entryDy=0;curved=1;strokeColor=#009900;strokeWidth=2;" edge="1" parent="1" source="XAxzHW4d63KUv2WBRbAG-26" target="XAxzHW4d63KUv2WBRbAG-3">
          <mxGeometry relative="1" as="geometry" />
        </mxCell>
        <mxCell id="XAxzHW4d63KUv2WBRbAG-81" value="5" style="edgeLabel;html=1;align=center;verticalAlign=middle;resizable=0;points=[];" vertex="1" connectable="0" parent="XAxzHW4d63KUv2WBRbAG-80">
          <mxGeometry x="-0.6182" y="-1" relative="1" as="geometry">
            <mxPoint as="offset" />
          </mxGeometry>
        </mxCell>
        <mxCell id="XAxzHW4d63KUv2WBRbAG-26" value="&lt;font style=&quot;font-size: 13px;&quot; face=&quot;Comic Sans MS&quot;&gt;&lt;b&gt;state.activeConnections.size() &amp;lt; poolMaximumActiveConnections ？&lt;/b&gt;&lt;/font&gt;" style="rounded=0;whiteSpace=wrap;html=1;dashed=1;dashPattern=1 2;strokeWidth=2;strokeColor=#009900;" vertex="1" parent="1">
          <mxGeometry x="993" y="324" width="427" height="53" as="geometry" />
        </mxCell>
        <mxCell id="XAxzHW4d63KUv2WBRbAG-27" style="edgeStyle=orthogonalEdgeStyle;rounded=0;orthogonalLoop=1;jettySize=auto;html=1;entryX=0.5;entryY=1;entryDx=0;entryDy=0;exitX=0.457;exitY=-0.004;exitDx=0;exitDy=0;exitPerimeter=0;curved=1;strokeWidth=2;strokeColor=#009900;" edge="1" parent="1" source="XAxzHW4d63KUv2WBRbAG-4" target="XAxzHW4d63KUv2WBRbAG-26">
          <mxGeometry relative="1" as="geometry" />
        </mxCell>
        <mxCell id="XAxzHW4d63KUv2WBRbAG-71" value="3" style="edgeLabel;html=1;align=center;verticalAlign=middle;resizable=0;points=[];" vertex="1" connectable="0" parent="XAxzHW4d63KUv2WBRbAG-27">
          <mxGeometry x="-0.1092" y="2" relative="1" as="geometry">
            <mxPoint as="offset" />
          </mxGeometry>
        </mxCell>
        <mxCell id="XAxzHW4d63KUv2WBRbAG-28" value="&lt;span style=&quot;font-family: &amp;quot;Comic Sans MS&amp;quot;; font-size: 12px; font-style: normal; font-variant-ligatures: normal; font-variant-caps: normal; font-weight: 400; letter-spacing: normal; orphans: 2; text-align: center; text-indent: 0px; text-transform: none; widows: 2; word-spacing: 0px; -webkit-text-stroke-width: 0px; background-color: rgb(255, 255, 255); text-decoration-thickness: initial; text-decoration-style: initial; text-decoration-color: initial; float: none; display: inline !important;&quot;&gt;&lt;font color=&quot;#009900&quot;&gt;state.idleConnections.isEmpty()&lt;/font&gt;&lt;/span&gt;" style="text;whiteSpace=wrap;html=1;" vertex="1" parent="1">
          <mxGeometry x="594.999951171875" y="524" width="206" height="37" as="geometry" />
        </mxCell>
        <mxCell id="XAxzHW4d63KUv2WBRbAG-31" value="&lt;font color=&quot;#009900&quot;&gt;活跃连接数少，创建新连接，加入活跃连接池中&lt;/font&gt;" style="text;html=1;strokeColor=none;fillColor=none;align=center;verticalAlign=middle;whiteSpace=wrap;rounded=0;" vertex="1" parent="1">
          <mxGeometry x="1214" y="219" width="264" height="17" as="geometry" />
        </mxCell>
        <mxCell id="XAxzHW4d63KUv2WBRbAG-32" value="&lt;font color=&quot;#009900&quot;&gt;add&amp;nbsp;&amp;nbsp;PooledConnection&lt;/font&gt;" style="text;html=1;strokeColor=none;fillColor=none;align=center;verticalAlign=middle;whiteSpace=wrap;rounded=0;" vertex="1" parent="1">
          <mxGeometry x="461" y="-127" width="159" height="30" as="geometry" />
        </mxCell>
        <mxCell id="XAxzHW4d63KUv2WBRbAG-37" value="&lt;font color=&quot;#009900&quot;&gt;Get OldestActiveConnection&lt;/font&gt;" style="text;html=1;strokeColor=none;fillColor=none;align=center;verticalAlign=middle;whiteSpace=wrap;rounded=0;" vertex="1" parent="1">
          <mxGeometry x="610" y="341" width="232" height="31" as="geometry" />
        </mxCell>
        <mxCell id="XAxzHW4d63KUv2WBRbAG-42" style="edgeStyle=orthogonalEdgeStyle;rounded=0;orthogonalLoop=1;jettySize=auto;html=1;curved=1;strokeColor=#009900;strokeWidth=2;" edge="1" parent="1" source="XAxzHW4d63KUv2WBRbAG-41">
          <mxGeometry relative="1" as="geometry">
            <mxPoint x="1146" y="-25" as="targetPoint" />
          </mxGeometry>
        </mxCell>
        <mxCell id="XAxzHW4d63KUv2WBRbAG-84" value="7" style="edgeLabel;html=1;align=center;verticalAlign=middle;resizable=0;points=[];" vertex="1" connectable="0" parent="XAxzHW4d63KUv2WBRbAG-42">
          <mxGeometry x="-0.1283" y="39" relative="1" as="geometry">
            <mxPoint as="offset" />
          </mxGeometry>
        </mxCell>
        <mxCell id="XAxzHW4d63KUv2WBRbAG-85" style="edgeStyle=orthogonalEdgeStyle;rounded=0;orthogonalLoop=1;jettySize=auto;html=1;curved=1;exitX=0.5;exitY=1;exitDx=0;exitDy=0;strokeWidth=2;strokeColor=#009900;" edge="1" parent="1" source="XAxzHW4d63KUv2WBRbAG-41">
          <mxGeometry relative="1" as="geometry">
            <mxPoint x="115" y="817" as="targetPoint" />
            <Array as="points">
              <mxPoint x="871" y="950" />
              <mxPoint x="115" y="950" />
            </Array>
          </mxGeometry>
        </mxCell>
        <mxCell id="XAxzHW4d63KUv2WBRbAG-95" value="10" style="edgeLabel;html=1;align=center;verticalAlign=middle;resizable=0;points=[];" vertex="1" connectable="0" parent="XAxzHW4d63KUv2WBRbAG-85">
          <mxGeometry x="-0.4429" y="-94" relative="1" as="geometry">
            <mxPoint x="13" y="8" as="offset" />
          </mxGeometry>
        </mxCell>
        <mxCell id="XAxzHW4d63KUv2WBRbAG-41" value="&lt;font style=&quot;font-size: 13px;&quot; face=&quot;Comic Sans MS&quot;&gt;&lt;b&gt;超时检查：longestCheckoutTime &amp;gt; poolMaximumCheckoutTime ?&lt;/b&gt;&lt;/font&gt;" style="rounded=0;whiteSpace=wrap;html=1;dashed=1;dashPattern=1 2;strokeColor=#009900;strokeWidth=2;" vertex="1" parent="1">
          <mxGeometry x="658" y="152" width="407" height="55" as="geometry" />
        </mxCell>
        <mxCell id="XAxzHW4d63KUv2WBRbAG-43" value="&lt;font color=&quot;#009900&quot;&gt;最久连接已经超时了，&lt;br&gt;活跃连接池中需要移除remove该连接，&lt;br&gt;并创建新的PooledConnection加入到活跃连接池中&lt;/font&gt;" style="text;html=1;strokeColor=none;fillColor=none;align=center;verticalAlign=middle;whiteSpace=wrap;rounded=0;" vertex="1" parent="1">
          <mxGeometry x="846" y="23" width="290" height="69" as="geometry" />
        </mxCell>
        <mxCell id="XAxzHW4d63KUv2WBRbAG-46" value="GET PooledConnection&lt;br&gt;Request" style="rounded=1;whiteSpace=wrap;html=1;fillColor=#d5e8d4;strokeColor=#82b366;" vertex="1" parent="1">
          <mxGeometry x="-196" y="781" width="207" height="60" as="geometry" />
        </mxCell>
        <mxCell id="XAxzHW4d63KUv2WBRbAG-62" style="edgeStyle=orthogonalEdgeStyle;rounded=0;orthogonalLoop=1;jettySize=auto;html=1;entryX=1;entryY=0.5;entryDx=0;entryDy=0;strokeColor=#009900;strokeWidth=2;" edge="1" parent="1" source="XAxzHW4d63KUv2WBRbAG-48" target="XAxzHW4d63KUv2WBRbAG-61">
          <mxGeometry relative="1" as="geometry" />
        </mxCell>
        <mxCell id="XAxzHW4d63KUv2WBRbAG-97" value="11" style="edgeLabel;html=1;align=center;verticalAlign=middle;resizable=0;points=[];" vertex="1" connectable="0" parent="XAxzHW4d63KUv2WBRbAG-62">
          <mxGeometry x="-0.3931" y="-4" relative="1" as="geometry">
            <mxPoint x="-1" as="offset" />
          </mxGeometry>
        </mxCell>
        <mxCell id="XAxzHW4d63KUv2WBRbAG-63" style="edgeStyle=orthogonalEdgeStyle;rounded=0;orthogonalLoop=1;jettySize=auto;html=1;strokeColor=#009900;strokeWidth=2;" edge="1" parent="1" source="XAxzHW4d63KUv2WBRbAG-48">
          <mxGeometry relative="1" as="geometry">
            <mxPoint x="-591" y="542" as="targetPoint" />
            <Array as="points">
              <mxPoint x="-200" y="542" />
            </Array>
          </mxGeometry>
        </mxCell>
        <mxCell id="XAxzHW4d63KUv2WBRbAG-98" value="12" style="edgeLabel;html=1;align=center;verticalAlign=middle;resizable=0;points=[];" vertex="1" connectable="0" parent="XAxzHW4d63KUv2WBRbAG-63">
          <mxGeometry x="-0.3382" y="4" relative="1" as="geometry">
            <mxPoint as="offset" />
          </mxGeometry>
        </mxCell>
        <mxCell id="XAxzHW4d63KUv2WBRbAG-48" value="&lt;font face=&quot;Comic Sans MS&quot;&gt;&lt;b&gt;conn != null &amp;amp;&amp;amp; conn.isValid() ?&lt;/b&gt;&lt;/font&gt;" style="rounded=0;whiteSpace=wrap;html=1;dashed=1;dashPattern=1 2;strokeColor=#009900;" vertex="1" parent="1">
          <mxGeometry x="-314" y="621" width="227" height="60" as="geometry" />
        </mxCell>
        <mxCell id="XAxzHW4d63KUv2WBRbAG-60" value="&lt;font color=&quot;#009900&quot;&gt;Exception&lt;/font&gt;" style="text;html=1;strokeColor=none;fillColor=none;align=center;verticalAlign=middle;whiteSpace=wrap;rounded=0;" vertex="1" parent="1">
          <mxGeometry x="-426" y="514" width="60" height="30" as="geometry" />
        </mxCell>
        <mxCell id="XAxzHW4d63KUv2WBRbAG-61" value="&lt;font style=&quot;font-size: 14px;&quot;&gt;&lt;b&gt;PooledConnection&lt;/b&gt;&lt;/font&gt;" style="text;html=1;strokeColor=none;fillColor=none;align=center;verticalAlign=middle;whiteSpace=wrap;rounded=0;" vertex="1" parent="1">
          <mxGeometry x="-742" y="616.5" width="151" height="69" as="geometry" />
        </mxCell>
        <mxCell id="XAxzHW4d63KUv2WBRbAG-65" value="false&lt;br&gt;" style="text;html=1;strokeColor=none;fillColor=none;align=center;verticalAlign=middle;whiteSpace=wrap;rounded=0;" vertex="1" parent="1">
          <mxGeometry x="948" y="326" width="60" height="30" as="geometry" />
        </mxCell>
        <mxCell id="XAxzHW4d63KUv2WBRbAG-66" value="false&lt;br&gt;" style="text;html=1;strokeColor=none;fillColor=none;align=center;verticalAlign=middle;whiteSpace=wrap;rounded=0;" vertex="1" parent="1">
          <mxGeometry x="-214" y="598" width="61" height="30" as="geometry" />
        </mxCell>
        <mxCell id="XAxzHW4d63KUv2WBRbAG-67" value="true" style="text;html=1;strokeColor=none;fillColor=none;align=center;verticalAlign=middle;whiteSpace=wrap;rounded=0;" vertex="1" parent="1">
          <mxGeometry x="-366" y="643" width="60" height="30" as="geometry" />
        </mxCell>
        <mxCell id="XAxzHW4d63KUv2WBRbAG-68" style="edgeStyle=orthogonalEdgeStyle;rounded=0;orthogonalLoop=1;jettySize=auto;html=1;entryX=1;entryY=0.5;entryDx=0;entryDy=0;curved=1;strokeColor=#009900;strokeWidth=2;" edge="1" parent="1" target="XAxzHW4d63KUv2WBRbAG-48">
          <mxGeometry relative="1" as="geometry">
            <mxPoint x="223" y="809" as="sourcePoint" />
          </mxGeometry>
        </mxCell>
        <mxCell id="XAxzHW4d63KUv2WBRbAG-70" value="2" style="edgeLabel;html=1;align=center;verticalAlign=middle;resizable=0;points=[];" vertex="1" connectable="0" parent="XAxzHW4d63KUv2WBRbAG-68">
          <mxGeometry x="-0.1309" y="-8" relative="1" as="geometry">
            <mxPoint as="offset" />
          </mxGeometry>
        </mxCell>
        <mxCell id="XAxzHW4d63KUv2WBRbAG-72" value="true" style="text;html=1;strokeColor=none;fillColor=none;align=center;verticalAlign=middle;whiteSpace=wrap;rounded=0;" vertex="1" parent="1">
          <mxGeometry x="1194" y="301" width="60" height="30" as="geometry" />
        </mxCell>
        <mxCell id="XAxzHW4d63KUv2WBRbAG-78" value="&lt;span style=&quot;font-family: Helvetica; font-size: 12px; font-style: normal; font-variant-ligatures: normal; font-variant-caps: normal; font-weight: 400; letter-spacing: normal; orphans: 2; text-align: center; text-indent: 0px; text-transform: none; widows: 2; word-spacing: 0px; -webkit-text-stroke-width: 0px; background-color: rgb(255, 255, 255); text-decoration-thickness: initial; text-decoration-style: initial; text-decoration-color: initial; float: none; display: inline !important;&quot;&gt;&lt;font color=&quot;#009900&quot;&gt;OldestActiveConnection&lt;/font&gt;&lt;/span&gt;" style="text;whiteSpace=wrap;html=1;" vertex="1" parent="1">
          <mxGeometry x="463.9987168817935" y="272.99697775135877" width="153" height="36" as="geometry" />
        </mxCell>
        <mxCell id="XAxzHW4d63KUv2WBRbAG-79" style="edgeStyle=orthogonalEdgeStyle;rounded=0;orthogonalLoop=1;jettySize=auto;html=1;curved=1;exitX=0.5;exitY=1;exitDx=0;exitDy=0;strokeColor=#009900;strokeWidth=2;" edge="1" parent="1" source="XAxzHW4d63KUv2WBRbAG-3" target="XAxzHW4d63KUv2WBRbAG-41">
          <mxGeometry relative="1" as="geometry" />
        </mxCell>
        <mxCell id="XAxzHW4d63KUv2WBRbAG-82" value="6" style="edgeLabel;html=1;align=center;verticalAlign=middle;resizable=0;points=[];" vertex="1" connectable="0" parent="XAxzHW4d63KUv2WBRbAG-79">
          <mxGeometry x="0.1677" y="17" relative="1" as="geometry">
            <mxPoint as="offset" />
          </mxGeometry>
        </mxCell>
        <mxCell id="XAxzHW4d63KUv2WBRbAG-86" value="&lt;span style=&quot;orphans: 2; text-align: center; text-indent: 0px; widows: 2; background-color: rgb(255, 255, 255); text-decoration-thickness: initial; text-decoration-style: initial; text-decoration-color: initial; float: none; display: inline !important;&quot;&gt;&lt;font color=&quot;#009900&quot;&gt;最久的连接未超时，进入阻塞等待，循环继续获取连接&lt;br&gt;&lt;font face=&quot;Comic Sans MS&quot;&gt;&amp;nbsp;state.wait(poolTimeToWait);&lt;/font&gt;&lt;/font&gt;&lt;br&gt;&lt;/span&gt;" style="text;whiteSpace=wrap;html=1;" vertex="1" parent="1">
          <mxGeometry x="286" y="892" width="389" height="44" as="geometry" />
        </mxCell>
        <mxCell id="XAxzHW4d63KUv2WBRbAG-90" value="true" style="text;html=1;strokeColor=none;fillColor=none;align=center;verticalAlign=middle;whiteSpace=wrap;rounded=0;" vertex="1" parent="1">
          <mxGeometry x="1057" y="175" width="60" height="30" as="geometry" />
        </mxCell>
        <mxCell id="XAxzHW4d63KUv2WBRbAG-91" value="false" style="text;html=1;strokeColor=none;fillColor=none;align=center;verticalAlign=middle;whiteSpace=wrap;rounded=0;" vertex="1" parent="1">
          <mxGeometry x="866" y="202" width="60" height="30" as="geometry" />
        </mxCell>
        <mxCell id="XAxzHW4d63KUv2WBRbAG-93" style="edgeStyle=orthogonalEdgeStyle;rounded=0;orthogonalLoop=1;jettySize=auto;html=1;entryX=1;entryY=0.5;entryDx=0;entryDy=0;curved=1;exitX=0.5;exitY=0;exitDx=0;exitDy=0;strokeColor=#009900;strokeWidth=2;" edge="1" parent="1" source="XAxzHW4d63KUv2WBRbAG-3" target="XAxzHW4d63KUv2WBRbAG-48">
          <mxGeometry relative="1" as="geometry" />
        </mxCell>
        <mxCell id="XAxzHW4d63KUv2WBRbAG-134" value="9" style="edgeLabel;html=1;align=center;verticalAlign=middle;resizable=0;points=[];" vertex="1" connectable="0" parent="XAxzHW4d63KUv2WBRbAG-93">
          <mxGeometry x="0.0254" y="3" relative="1" as="geometry">
            <mxPoint as="offset" />
          </mxGeometry>
        </mxCell>
        <mxCell id="XAxzHW4d63KUv2WBRbAG-101" style="edgeStyle=orthogonalEdgeStyle;rounded=0;orthogonalLoop=1;jettySize=auto;html=1;entryX=0.5;entryY=0;entryDx=0;entryDy=0;elbow=vertical;curved=1;strokeColor=#0000FF;strokeWidth=2;" edge="1" parent="1" source="XAxzHW4d63KUv2WBRbAG-99" target="XAxzHW4d63KUv2WBRbAG-3">
          <mxGeometry relative="1" as="geometry" />
        </mxCell>
        <mxCell id="XAxzHW4d63KUv2WBRbAG-130" value="1" style="edgeLabel;html=1;align=center;verticalAlign=middle;resizable=0;points=[];" vertex="1" connectable="0" parent="XAxzHW4d63KUv2WBRbAG-101">
          <mxGeometry x="-0.3435" y="-42" relative="1" as="geometry">
            <mxPoint as="offset" />
          </mxGeometry>
        </mxCell>
        <mxCell id="XAxzHW4d63KUv2WBRbAG-99" value="RETURN PooledConnection&lt;br&gt;Request" style="rounded=1;whiteSpace=wrap;html=1;fillColor=#fff2cc;strokeColor=#d6b656;" vertex="1" parent="1">
          <mxGeometry x="-365" y="-124" width="207" height="60" as="geometry" />
        </mxCell>
        <mxCell id="XAxzHW4d63KUv2WBRbAG-112" style="edgeStyle=orthogonalEdgeStyle;rounded=0;orthogonalLoop=1;jettySize=auto;html=1;strokeColor=#0000FF;strokeWidth=2;" edge="1" parent="1" source="XAxzHW4d63KUv2WBRbAG-110">
          <mxGeometry relative="1" as="geometry">
            <mxPoint x="-405" y="88" as="targetPoint" />
          </mxGeometry>
        </mxCell>
        <mxCell id="XAxzHW4d63KUv2WBRbAG-141" value="3" style="edgeLabel;html=1;align=center;verticalAlign=middle;resizable=0;points=[];" vertex="1" connectable="0" parent="XAxzHW4d63KUv2WBRbAG-112">
          <mxGeometry x="-0.2736" y="3" relative="1" as="geometry">
            <mxPoint as="offset" />
          </mxGeometry>
        </mxCell>
        <mxCell id="XAxzHW4d63KUv2WBRbAG-118" style="edgeStyle=orthogonalEdgeStyle;rounded=0;orthogonalLoop=1;jettySize=auto;html=1;entryX=0.419;entryY=0.038;entryDx=0;entryDy=0;entryPerimeter=0;curved=1;strokeColor=#0000FF;strokeWidth=2;" edge="1" parent="1" source="XAxzHW4d63KUv2WBRbAG-110" target="XAxzHW4d63KUv2WBRbAG-117">
          <mxGeometry relative="1" as="geometry" />
        </mxCell>
        <mxCell id="XAxzHW4d63KUv2WBRbAG-142" value="4" style="edgeLabel;html=1;align=center;verticalAlign=middle;resizable=0;points=[];" vertex="1" connectable="0" parent="XAxzHW4d63KUv2WBRbAG-118">
          <mxGeometry x="-0.134" y="-5" relative="1" as="geometry">
            <mxPoint as="offset" />
          </mxGeometry>
        </mxCell>
        <mxCell id="XAxzHW4d63KUv2WBRbAG-110" value="&lt;font face=&quot;Comic Sans MS&quot;&gt;&lt;b&gt;conn.isValid() ?&lt;/b&gt;&lt;/font&gt;" style="rounded=0;whiteSpace=wrap;html=1;dashed=1;dashPattern=1 1;strokeColor=#6666FF;strokeWidth=2;" vertex="1" parent="1">
          <mxGeometry x="-158" y="58" width="227" height="60" as="geometry" />
        </mxCell>
        <mxCell id="XAxzHW4d63KUv2WBRbAG-111" value="" style="endArrow=classic;html=1;rounded=0;exitX=0.5;exitY=0;exitDx=0;exitDy=0;entryX=1;entryY=0.5;entryDx=0;entryDy=0;edgeStyle=orthogonalEdgeStyle;curved=1;strokeColor=#0000FF;strokeWidth=2;" edge="1" parent="1" source="XAxzHW4d63KUv2WBRbAG-3" target="XAxzHW4d63KUv2WBRbAG-110">
          <mxGeometry width="50" height="50" relative="1" as="geometry">
            <mxPoint x="165" y="173" as="sourcePoint" />
            <mxPoint x="215" y="123" as="targetPoint" />
          </mxGeometry>
        </mxCell>
        <mxCell id="XAxzHW4d63KUv2WBRbAG-139" value="2" style="edgeLabel;html=1;align=center;verticalAlign=middle;resizable=0;points=[];" vertex="1" connectable="0" parent="XAxzHW4d63KUv2WBRbAG-111">
          <mxGeometry x="0.1779" y="8" relative="1" as="geometry">
            <mxPoint as="offset" />
          </mxGeometry>
        </mxCell>
        <mxCell id="XAxzHW4d63KUv2WBRbAG-115" value="&lt;font color=&quot;#0000ff&quot;&gt;连接已失效，记录状态&lt;br&gt;该PooledConnection等待GC回收&lt;/font&gt;" style="text;html=1;strokeColor=none;fillColor=none;align=center;verticalAlign=middle;whiteSpace=wrap;rounded=0;" vertex="1" parent="1">
          <mxGeometry x="-403.5" y="49" width="231" height="33" as="geometry" />
        </mxCell>
        <mxCell id="XAxzHW4d63KUv2WBRbAG-116" value="false&lt;br&gt;" style="text;html=1;strokeColor=none;fillColor=none;align=center;verticalAlign=middle;whiteSpace=wrap;rounded=0;" vertex="1" parent="1">
          <mxGeometry x="-202" y="82" width="60" height="30" as="geometry" />
        </mxCell>
        <mxCell id="XAxzHW4d63KUv2WBRbAG-120" style="edgeStyle=orthogonalEdgeStyle;rounded=0;orthogonalLoop=1;jettySize=auto;html=1;curved=1;exitX=0.5;exitY=1;exitDx=0;exitDy=0;strokeColor=#0000FF;strokeWidth=2;" edge="1" parent="1" source="XAxzHW4d63KUv2WBRbAG-122" target="XAxzHW4d63KUv2WBRbAG-4">
          <mxGeometry relative="1" as="geometry">
            <mxPoint x="315" y="732" as="targetPoint" />
            <Array as="points">
              <mxPoint x="-216" y="398" />
              <mxPoint x="-213" y="398" />
              <mxPoint x="-213" y="464" />
              <mxPoint x="330" y="464" />
            </Array>
          </mxGeometry>
        </mxCell>
        <mxCell id="XAxzHW4d63KUv2WBRbAG-144" value="7" style="edgeLabel;html=1;align=center;verticalAlign=middle;resizable=0;points=[];" vertex="1" connectable="0" parent="XAxzHW4d63KUv2WBRbAG-120">
          <mxGeometry x="-0.4131" y="-2" relative="1" as="geometry">
            <mxPoint as="offset" />
          </mxGeometry>
        </mxCell>
        <mxCell id="XAxzHW4d63KUv2WBRbAG-124" style="edgeStyle=orthogonalEdgeStyle;rounded=0;orthogonalLoop=1;jettySize=auto;html=1;entryX=0.5;entryY=0;entryDx=0;entryDy=0;strokeColor=#0000FF;strokeWidth=2;" edge="1" parent="1" source="XAxzHW4d63KUv2WBRbAG-117" target="XAxzHW4d63KUv2WBRbAG-122">
          <mxGeometry relative="1" as="geometry" />
        </mxCell>
        <mxCell id="XAxzHW4d63KUv2WBRbAG-145" value="6" style="edgeLabel;html=1;align=center;verticalAlign=middle;resizable=0;points=[];" vertex="1" connectable="0" parent="XAxzHW4d63KUv2WBRbAG-124">
          <mxGeometry x="-0.2606" y="-1" relative="1" as="geometry">
            <mxPoint y="1" as="offset" />
          </mxGeometry>
        </mxCell>
        <mxCell id="XAxzHW4d63KUv2WBRbAG-125" style="edgeStyle=orthogonalEdgeStyle;rounded=0;orthogonalLoop=1;jettySize=auto;html=1;strokeColor=#0000FF;strokeWidth=2;" edge="1" parent="1" source="XAxzHW4d63KUv2WBRbAG-117">
          <mxGeometry relative="1" as="geometry">
            <mxPoint x="-783" y="234" as="targetPoint" />
          </mxGeometry>
        </mxCell>
        <mxCell id="XAxzHW4d63KUv2WBRbAG-143" value="5" style="edgeLabel;html=1;align=center;verticalAlign=middle;resizable=0;points=[];" vertex="1" connectable="0" parent="XAxzHW4d63KUv2WBRbAG-125">
          <mxGeometry x="-0.097" y="2" relative="1" as="geometry">
            <mxPoint as="offset" />
          </mxGeometry>
        </mxCell>
        <mxCell id="XAxzHW4d63KUv2WBRbAG-117" value="&lt;font size=&quot;1&quot; face=&quot;Comic Sans MS&quot;&gt;&lt;b style=&quot;font-size: 13px;&quot;&gt;state.idleConnections.size() &amp;lt; poolMaximumIdleConnections ？&lt;/b&gt;&lt;/font&gt;" style="rounded=0;whiteSpace=wrap;html=1;dashed=1;dashPattern=1 2;strokeColor=#6666FF;strokeWidth=2;" vertex="1" parent="1">
          <mxGeometry x="-430" y="208" width="427" height="53" as="geometry" />
        </mxCell>
        <mxCell id="XAxzHW4d63KUv2WBRbAG-119" value="true" style="text;html=1;strokeColor=none;fillColor=none;align=center;verticalAlign=middle;whiteSpace=wrap;rounded=0;" vertex="1" parent="1">
          <mxGeometry x="-47" y="114" width="60" height="30" as="geometry" />
        </mxCell>
        <mxCell id="XAxzHW4d63KUv2WBRbAG-121" value="&lt;font color=&quot;#0000ff&quot;&gt;add to&amp;nbsp;idleConnections&lt;/font&gt;" style="text;html=1;align=center;verticalAlign=middle;resizable=0;points=[];autosize=1;strokeColor=none;fillColor=none;" vertex="1" parent="1">
          <mxGeometry x="156" y="453" width="140" height="26" as="geometry" />
        </mxCell>
        <mxCell id="XAxzHW4d63KUv2WBRbAG-122" value="&lt;font size=&quot;1&quot; face=&quot;Comic Sans MS&quot;&gt;&lt;b style=&quot;font-size: 13px;&quot;&gt;new PooledConnection()&lt;/b&gt;&lt;/font&gt;" style="ellipse;whiteSpace=wrap;html=1;fillColor=#fff2cc;strokeColor=#d6b656;" vertex="1" parent="1">
          <mxGeometry x="-298" y="377" width="163" height="57" as="geometry" />
        </mxCell>
        <mxCell id="XAxzHW4d63KUv2WBRbAG-126" value="&lt;font color=&quot;#0000ff&quot;&gt;空闲连接数达到上限，需要关闭连接， connection.close()&lt;/font&gt;" style="text;html=1;align=center;verticalAlign=middle;resizable=0;points=[];autosize=1;strokeColor=none;fillColor=none;" vertex="1" parent="1">
          <mxGeometry x="-800" y="202" width="323" height="26" as="geometry" />
        </mxCell>
        <mxCell id="XAxzHW4d63KUv2WBRbAG-127" value="false" style="text;html=1;strokeColor=none;fillColor=none;align=center;verticalAlign=middle;whiteSpace=wrap;rounded=0;" vertex="1" parent="1">
          <mxGeometry x="-213" y="266" width="60" height="30" as="geometry" />
        </mxCell>
        <mxCell id="XAxzHW4d63KUv2WBRbAG-128" value="true" style="text;html=1;strokeColor=none;fillColor=none;align=center;verticalAlign=middle;whiteSpace=wrap;rounded=0;" vertex="1" parent="1">
          <mxGeometry x="-475" y="208" width="60" height="30" as="geometry" />
        </mxCell>
        <mxCell id="XAxzHW4d63KUv2WBRbAG-129" value="&lt;font color=&quot;#0000ff&quot;&gt;空闲连接数未达上限，需将连接返回给空闲连接池&lt;/font&gt;" style="text;html=1;align=center;verticalAlign=middle;resizable=0;points=[];autosize=1;strokeColor=none;fillColor=none;" vertex="1" parent="1">
          <mxGeometry x="-510" y="321" width="282" height="26" as="geometry" />
        </mxCell>
        <mxCell id="XAxzHW4d63KUv2WBRbAG-132" value="&lt;font color=&quot;#0000ff&quot;&gt;state.activeConnections.remove(conn);&lt;/font&gt;" style="text;whiteSpace=wrap;html=1;" vertex="1" parent="1">
          <mxGeometry x="53" y="-113" width="231" height="29" as="geometry" />
        </mxCell>
        <mxCell id="XAxzHW4d63KUv2WBRbAG-140" value="&lt;font color=&quot;#0000ff&quot;&gt;pooledConnection&lt;/font&gt;" style="text;html=1;strokeColor=none;fillColor=none;align=center;verticalAlign=middle;whiteSpace=wrap;rounded=0;" vertex="1" parent="1">
          <mxGeometry x="146" y="58" width="108" height="30" as="geometry" />
        </mxCell>
      </root>
    </mxGraphModel>
  </diagram>
</mxfile>
